<mxfile host="app.diagrams.net" agent="Mozilla/5.0 (Windows NT 10.0; Win64; x64) AppleWebKit/537.36 (KHTML, like Gecko) Chrome/135.0.0.0 Safari/537.36" version="26.2.14">
  <diagram name="Page-1" id="2YBvvXClWsGukQMizWep">
    <mxGraphModel grid="1" page="1" gridSize="10" guides="1" tooltips="1" connect="1" arrows="1" fold="1" pageScale="1" pageWidth="850" pageHeight="1100" math="0" shadow="0">
      <root>
        <mxCell id="0" />
        <mxCell id="1" parent="0" />
        <mxCell id="y9BbqDnXj5JtyY8xyIQ3-1" value="Message" style="shape=umlLifeline;perimeter=lifelinePerimeter;whiteSpace=wrap;html=1;container=0;dropTarget=0;collapsible=0;recursiveResize=0;outlineConnect=0;portConstraint=eastwest;newEdgeStyle={&quot;edgeStyle&quot;:&quot;elbowEdgeStyle&quot;,&quot;elbow&quot;:&quot;vertical&quot;,&quot;curved&quot;:0,&quot;rounded&quot;:0};" vertex="1" parent="1">
          <mxGeometry x="370" y="50" width="100" height="300" as="geometry" />
        </mxCell>
        <mxCell id="y9BbqDnXj5JtyY8xyIQ3-3" value="confirmSent" style="html=1;verticalAlign=bottom;endArrow=open;dashed=1;endSize=8;edgeStyle=elbowEdgeStyle;elbow=vertical;curved=0;rounded=0;" edge="1" parent="1" source="y9BbqDnXj5JtyY8xyIQ3-12" target="y9BbqDnXj5JtyY8xyIQ3-5">
          <mxGeometry x="-0.0841" relative="1" as="geometry">
            <mxPoint x="101" y="290" as="targetPoint" />
            <Array as="points">
              <mxPoint x="190" y="300" />
            </Array>
            <mxPoint x="271" y="290" as="sourcePoint" />
            <mxPoint as="offset" />
          </mxGeometry>
        </mxCell>
        <mxCell id="y9BbqDnXj5JtyY8xyIQ3-4" value="&amp;nbsp; &amp;nbsp; &amp;nbsp; &amp;nbsp; &amp;nbsp; &amp;nbsp; &amp;nbsp; &amp;nbsp; &amp;nbsp;" style="html=1;verticalAlign=bottom;endArrow=block;edgeStyle=elbowEdgeStyle;elbow=vertical;curved=0;rounded=0;" edge="1" parent="1">
          <mxGeometry relative="1" as="geometry">
            <mxPoint x="287" y="120" as="sourcePoint" />
            <Array as="points">
              <mxPoint x="103" y="120" />
            </Array>
            <mxPoint x="287" y="120" as="targetPoint" />
          </mxGeometry>
        </mxCell>
        <mxCell id="y9BbqDnXj5JtyY8xyIQ3-5" value="" style="shape=umlLifeline;perimeter=lifelinePerimeter;whiteSpace=wrap;html=1;container=1;dropTarget=0;collapsible=0;recursiveResize=0;outlineConnect=0;portConstraint=eastwest;newEdgeStyle={&quot;curved&quot;:0,&quot;rounded&quot;:0};participant=umlActor;" vertex="1" parent="1">
          <mxGeometry x="90" y="40" width="20" height="300" as="geometry" />
        </mxCell>
        <mxCell id="y9BbqDnXj5JtyY8xyIQ3-6" value="join(groupId)" style="text;html=1;align=center;verticalAlign=middle;resizable=0;points=[];autosize=1;strokeColor=none;fillColor=none;" vertex="1" parent="1">
          <mxGeometry x="150" y="90" width="90" height="30" as="geometry" />
        </mxCell>
        <mxCell id="y9BbqDnXj5JtyY8xyIQ3-7" value="" style="html=1;verticalAlign=bottom;endArrow=block;curved=0;rounded=0;exitX=0.021;exitY=1.024;exitDx=0;exitDy=0;exitPerimeter=0;" edge="1" parent="1" source="y9BbqDnXj5JtyY8xyIQ3-8" target="y9BbqDnXj5JtyY8xyIQ3-1">
          <mxGeometry width="80" relative="1" as="geometry">
            <mxPoint x="425.28999999999996" y="269.9999999999999" as="sourcePoint" />
            <mxPoint x="420" y="300.64" as="targetPoint" />
            <Array as="points">
              <mxPoint x="480" y="270" />
              <mxPoint x="480" y="290" />
            </Array>
          </mxGeometry>
        </mxCell>
        <mxCell id="y9BbqDnXj5JtyY8xyIQ3-8" value="store()" style="text;html=1;align=center;verticalAlign=middle;resizable=0;points=[];autosize=1;strokeColor=none;fillColor=none;" vertex="1" parent="1">
          <mxGeometry x="420" y="240" width="60" height="30" as="geometry" />
        </mxCell>
        <mxCell id="y9BbqDnXj5JtyY8xyIQ3-9" value="Message" style="html=1;whiteSpace=wrap;" vertex="1" parent="1">
          <mxGeometry x="370" y="350" width="110" height="50" as="geometry" />
        </mxCell>
        <mxCell id="y9BbqDnXj5JtyY8xyIQ3-10" value="Student" style="shape=umlActor;verticalLabelPosition=bottom;verticalAlign=top;html=1;" vertex="1" parent="1">
          <mxGeometry x="85" y="330" width="30" height="60" as="geometry" />
        </mxCell>
        <mxCell id="y9BbqDnXj5JtyY8xyIQ3-11" value="Student" style="text;html=1;align=center;verticalAlign=middle;resizable=0;points=[];autosize=1;strokeColor=none;fillColor=none;" vertex="1" parent="1">
          <mxGeometry x="40" y="50" width="60" height="30" as="geometry" />
        </mxCell>
        <mxCell id="y9BbqDnXj5JtyY8xyIQ3-12" value="Group" style="shape=umlLifeline;perimeter=lifelinePerimeter;whiteSpace=wrap;html=1;container=0;dropTarget=0;collapsible=0;recursiveResize=0;outlineConnect=0;portConstraint=eastwest;newEdgeStyle={&quot;edgeStyle&quot;:&quot;elbowEdgeStyle&quot;,&quot;elbow&quot;:&quot;vertical&quot;,&quot;curved&quot;:0,&quot;rounded&quot;:0};" vertex="1" parent="1">
          <mxGeometry x="235" y="50" width="100" height="300" as="geometry" />
        </mxCell>
        <mxCell id="y9BbqDnXj5JtyY8xyIQ3-13" value="Group" style="html=1;whiteSpace=wrap;" vertex="1" parent="1">
          <mxGeometry x="235" y="350" width="110" height="50" as="geometry" />
        </mxCell>
        <mxCell id="y9BbqDnXj5JtyY8xyIQ3-14" value="send(content)" style="text;html=1;align=center;verticalAlign=middle;resizable=0;points=[];autosize=1;strokeColor=none;fillColor=none;" vertex="1" parent="1">
          <mxGeometry x="130" y="175" width="100" height="30" as="geometry" />
        </mxCell>
        <mxCell id="y9BbqDnXj5JtyY8xyIQ3-15" value="&amp;nbsp; &amp;nbsp; &amp;nbsp; &amp;nbsp; &amp;nbsp; &amp;nbsp; &amp;nbsp; &amp;nbsp; &amp;nbsp;" style="html=1;verticalAlign=bottom;endArrow=block;edgeStyle=elbowEdgeStyle;elbow=vertical;curved=0;rounded=0;" edge="1" parent="1" target="y9BbqDnXj5JtyY8xyIQ3-12">
          <mxGeometry x="-0.9028" y="-42" relative="1" as="geometry">
            <mxPoint x="274" y="202" as="sourcePoint" />
            <Array as="points">
              <mxPoint x="100" y="202" />
            </Array>
            <mxPoint x="415" y="202" as="targetPoint" />
            <mxPoint as="offset" />
          </mxGeometry>
        </mxCell>
        <mxCell id="y9BbqDnXj5JtyY8xyIQ3-17" value="" style="html=1;verticalAlign=bottom;endArrow=block;curved=0;rounded=0;exitX=0.021;exitY=1.024;exitDx=0;exitDy=0;exitPerimeter=0;" edge="1" parent="1" target="y9BbqDnXj5JtyY8xyIQ3-12">
          <mxGeometry width="80" relative="1" as="geometry">
            <mxPoint x="286" y="141" as="sourcePoint" />
            <mxPoint x="285" y="170.64" as="targetPoint" />
            <Array as="points">
              <mxPoint x="345" y="140" />
              <mxPoint x="345" y="160" />
            </Array>
          </mxGeometry>
        </mxCell>
        <mxCell id="y9BbqDnXj5JtyY8xyIQ3-18" value="&amp;nbsp; &amp;nbsp; &amp;nbsp; &amp;nbsp; &amp;nbsp; &amp;nbsp; &amp;nbsp; &amp;nbsp; &amp;nbsp;" style="html=1;verticalAlign=bottom;endArrow=block;edgeStyle=elbowEdgeStyle;elbow=vertical;curved=0;rounded=0;" edge="1" parent="1">
          <mxGeometry x="-0.5152" y="-30" relative="1" as="geometry">
            <mxPoint x="414" y="220" as="sourcePoint" />
            <Array as="points">
              <mxPoint x="285" y="220" />
            </Array>
            <mxPoint x="420" y="220" as="targetPoint" />
            <mxPoint as="offset" />
          </mxGeometry>
        </mxCell>
        <mxCell id="y9BbqDnXj5JtyY8xyIQ3-21" value="&amp;nbsp; &amp;nbsp; &amp;nbsp; createOrjoin()" style="text;html=1;align=center;verticalAlign=middle;resizable=0;points=[];autosize=1;strokeColor=none;fillColor=none;fontSize=12;" vertex="1" parent="1">
          <mxGeometry x="264" y="111" width="120" height="30" as="geometry" />
        </mxCell>
        <mxCell id="y9BbqDnXj5JtyY8xyIQ3-22" value="createMessage()" style="text;html=1;align=center;verticalAlign=middle;resizable=0;points=[];autosize=1;strokeColor=none;fillColor=none;" vertex="1" parent="1">
          <mxGeometry x="305" y="200" width="110" height="30" as="geometry" />
        </mxCell>
        <mxCell id="y9BbqDnXj5JtyY8xyIQ3-23" value="Untitled Layer" parent="0" />
      </root>
    </mxGraphModel>
  </diagram>
</mxfile>
